<?xml version="1.0" encoding="UTF-8" standalone="no"?>
<svg
   xmlns:dc="http://purl.org/dc/elements/1.1/"
   xmlns:cc="http://creativecommons.org/ns#"
   xmlns:rdf="http://www.w3.org/1999/02/22-rdf-syntax-ns#"
   xmlns:svg="http://www.w3.org/2000/svg"
   xmlns="http://www.w3.org/2000/svg"
   version="1.1"
   id="svg12512"
   viewBox="0 0 20 20"
   height="20"
   width="20">
  <defs
     id="defs12514" />
  <metadata
     id="metadata12517">
    <rdf:RDF>
      <cc:Work
         rdf:about="">
        <dc:format>image/svg+xml</dc:format>
        <dc:type
           rdf:resource="http://purl.org/dc/dcmitype/StillImage" />
        <dc:title></dc:title>
      </cc:Work>
    </rdf:RDF>
  </metadata>
  <g
     transform="translate(104.96819,-80.030897)"
     id="layer1">
    <path
       id="path13071"
       d="m 500.53048,830.5011 c -12.9489,4.93255 -126.07181,7.61695 -251.3841,5.96547 C 37.348666,833.67503 19.846916,832.06612 0.5907063,813.61292 -20.221144,793.66905 -23.230344,779.4503 -51.510394,567.42796 -54.720464,543.36351 -69.644434,433.82038 -84.675134,323.99878 -100.07477,211.48272 -108.35829,116.66941 -103.65217,106.78827 c 5.429066,-11.397479 15.197566,-19.547859 27.908266,-23.284279 10.75545,-3.16159 168.16807,-4.3926 349.805414,-2.73582 308.39262,2.81357 331.59216,4.29933 350.52856,22.445939 20.01465,19.18001 19.61005,23.79364 -31.0937,354.53878 -28.25475,184.30817 -55.43354,341.55768 -60.39726,349.44316 -4.96376,7.88549 -19.61955,18.37289 -32.56837,23.30539 z M 560.57904,461.93558 C 588.244,279.25053 609.14284,126.73117 607.02168,123.00297 600.67402,111.85019 -72.501704,106.137 -75.292284,117.21273 c -4.24974,16.8682 81.5188903,654.39429 90.7033,674.20462 3.84575,8.29703 76.2064,12.16825 244.007224,13.0555 131.1967,0.69375 241.31133,-1.3582 244.70035,-4.56083 3.38839,-3.20205 28.79546,-155.29136 56.46045,-337.97645 z M 260.44241,721.04524 C 146.22347,718.50457 50.508316,714.25654 47.741546,711.60531 40.519096,704.68399 -5.4659837,361.15608 0.1226163,355.87455 c 2.56454,-2.42377 11.1093797,-3.81493 18.9885897,-3.09156 11.45556,1.05154 11.65682,5.09568 1.00665,20.18577 -17.6855697,25.05515 -3.22323,52.85096 58.04854,111.56741 43.259404,41.45562 50.432774,45.7807 76.076914,45.86573 l 28.31347,0.0942 15.28831,63.49556 c 14.85826,61.7113 26.81395,82.89942 49.53648,87.79095 6.06403,1.30484 44.37176,-4.17778 85.12885,-12.18387 101.4386,-19.92599 110.4926,-30.93309 94.3893,-114.75261 -6.65567,-34.64452 -13.85163,-66.3516 -15.9916,-70.45974 -2.30697,-4.42958 6.17775,-9.43041 20.84755,-12.28751 20.08884,-3.91261 27.80229,-9.73541 41.04228,-30.98246 55.07139,-88.37721 53.66635,-85.1956 38.24168,-86.61198 -11.90356,-1.09281 -13.19983,-5.37154 -6.63337,-21.90464 9.88668,-24.89231 1.77861,-32.97189 -71.74051,-71.49108 -65.09652,-34.1057 -70.73529,-32.04942 -114.77116,41.85425 -27.65445,46.41136 -28.35589,47.06717 -53.28867,49.81704 -26.46914,2.91961 -27.02659,6.31372 -5.68862,34.62741 8.79229,11.66717 5.09653,16.83826 -47.67561,66.70858 l -57.20667,54.06097 -53.64727,-48.29081 c -57.678714,-51.9194 -66.241974,-71.19901 -41.858704,-94.24162 8.01202,-7.57142 7.95841,-12.60336 -0.17438,-16.08084 -9.84495,-4.21198 -4.86532,-11.64349 29.67913,-44.2881 60.852054,-57.50617 72.755514,-57.7481 130.253714,-2.64794 40.74475,39.04564 46.31551,42.36383 52.61035,31.33593 81.80115,-143.31002 85.06143,-144.94283 180.58697,-90.44086 71.48164,40.78391 96.32011,66.54587 85.74399,88.93378 -3.20559,6.78564 -5.93339,20.11743 -6.06235,29.62675 -0.48254,35.70005 -50.61165,351.81985 -56.70272,357.57599 -3.495,3.30278 -99.80641,3.92619 -214.02522,1.38582 z M 152.79643,290.39612 c -18.11595,2.61465 -75.375024,51.68662 -68.262774,58.50209 2.2622,2.1681 36.388374,4.20593 75.835524,4.52872 l 71.72222,0.58681 -31.00677,-33.0559 c -24.58235,-26.20782 -34.58441,-32.54232 -48.2882,-30.56169 z m 167.5391,352.73266 c -35.3787,6.51022 -68.37185,7.95882 -73.31814,3.21888 -11.90508,-11.40864 -39.88916,-126.83786 -33.87437,-139.72381 6.73507,-14.42846 147.37936,-45.88935 158.31149,-35.41311 4.95487,4.74826 15.54434,37.42529 23.53199,72.61575 10.69547,47.11736 11.24871,67.07686 2.09905,75.72338 -6.8335,6.45775 -41.37088,17.06807 -76.75007,23.57892 z m 91.04228,-200.89379 c -45.58567,-20.15901 -122.12287,-69.53402 -122.08914,-78.76068 0.0226,-5.9581 40.43747,-9.67722 101.48484,-9.33953 l 101.44887,0.561 -16.59748,27.21545 c -39.16971,64.22708 -44.37297,69.11251 -64.24725,60.32356 z m -113.20713,5.96284 -34.98338,8.10778 17.81639,-21.28368 c 15.42416,-18.42564 20.12372,-19.95913 34.99616,-11.41774 9.44872,5.4261 17.17394,11.35508 17.16692,13.17573 -0.005,1.82011 -15.7547,6.95825 -34.99615,11.41774 z"
       style="fill:#0c61aa;fill-opacity:1" />
  </g>
</svg>
